<svg xmlns="http://www.w3.org/2000/svg" xmlns:xlink="http://www.w3.org/1999/xlink" width="196.693" height="79.457" viewBox="0 0 196.693 79.457">
  <defs>
    <style>
      .cls-1 {
        fill: #fcbd34;
      }

      .cls-2 {
        fill: #4593b8;
      }

      .cls-3 {
        fill: none;
        stroke: #fcbd34;
        stroke-miterlimit: 10;
        stroke-width: 5px;
      }

      .cls-4 {
        fill: url(#linear-gradient);
      }

      .cls-5 {
        filter: url(#Path_28);
      }

      .cls-6 {
        filter: url(#Path_7);
      }

      .cls-7 {
        filter: url(#Path_6);
      }

      .cls-8 {
        filter: url(#Path_5);
      }

      .cls-9 {
        filter: url(#Path_4);
      }

      .cls-10 {
        filter: url(#Path_3);
      }

      .cls-11 {
        filter: url(#Path_2);
      }
    </style>
    <filter id="Path_2" x="0" y="12.806" width="41.253" height="48.778" filterUnits="userSpaceOnUse">
      <feOffset dy="3" input="SourceAlpha"/>
      <feGaussianBlur stdDeviation="3" result="blur"/>
      <feFlood flood-opacity="0.161"/>
      <feComposite operator="in" in2="blur"/>
      <feComposite in="SourceGraphic"/>
    </filter>
    <filter id="Path_3" x="27.127" y="17.249" width="25.468" height="44.335" filterUnits="userSpaceOnUse">
      <feOffset dy="3" input="SourceAlpha"/>
      <feGaussianBlur stdDeviation="3" result="blur-2"/>
      <feFlood flood-opacity="0.161"/>
      <feComposite operator="in" in2="blur-2"/>
      <feComposite in="SourceGraphic"/>
    </filter>
    <filter id="Path_4" x="81.259" y="17.249" width="25.479" height="33.99" filterUnits="userSpaceOnUse">
      <feOffset dy="3" input="SourceAlpha"/>
      <feGaussianBlur stdDeviation="3" result="blur-3"/>
      <feFlood flood-opacity="0.161"/>
      <feComposite operator="in" in2="blur-3"/>
      <feComposite in="SourceGraphic"/>
    </filter>
    <filter id="Path_5" x="93.762" y="17.249" width="43.352" height="62.207" filterUnits="userSpaceOnUse">
      <feOffset dy="3" input="SourceAlpha"/>
      <feGaussianBlur stdDeviation="3" result="blur-4"/>
      <feFlood flood-opacity="0.161"/>
      <feComposite operator="in" in2="blur-4"/>
      <feComposite in="SourceGraphic"/>
    </filter>
    <filter id="Path_6" x="124.126" y="17.249" width="44.547" height="44.904" filterUnits="userSpaceOnUse">
      <feOffset dy="3" input="SourceAlpha"/>
      <feGaussianBlur stdDeviation="3" result="blur-5"/>
      <feFlood flood-opacity="0.161"/>
      <feComposite operator="in" in2="blur-5"/>
      <feComposite in="SourceGraphic"/>
    </filter>
    <filter id="Path_7" x="154.141" y="17.205" width="42.552" height="46.3" filterUnits="userSpaceOnUse">
      <feOffset dy="3" input="SourceAlpha"/>
      <feGaussianBlur stdDeviation="3" result="blur-6"/>
      <feFlood flood-opacity="0.161"/>
      <feComposite operator="in" in2="blur-6"/>
      <feComposite in="SourceGraphic"/>
    </filter>
    <linearGradient id="linear-gradient" y1="0.5" x2="1" y2="0.5" gradientUnits="objectBoundingBox">
      <stop offset="0" stop-color="#f7b11e"/>
      <stop offset="1" stop-color="#f7b11e" stop-opacity="0.902"/>
    </linearGradient>
    <filter id="Path_28" x="41.463" y="17.238" width="50.082" height="44.364" filterUnits="userSpaceOnUse">
      <feOffset dy="3" input="SourceAlpha"/>
      <feGaussianBlur stdDeviation="3" result="blur-7"/>
      <feFlood flood-opacity="0.161"/>
      <feComposite operator="in" in2="blur-7"/>
      <feComposite in="SourceGraphic"/>
    </filter>
  </defs>
  <g id="לוגו" transform="translate(-81.922 -13.62)">
    <g id="Group_3" data-name="Group 3" transform="translate(90.922 16.119)">
      <path id="Path_1" data-name="Path 1" class="cls-1" d="M473.245,203.463H435.613a.519.519,0,0,1-.514-.514V171.514c0-.279-9.023-.385.514-.514s37.632,0,37.632,0a.519.519,0,0,1,.513.514v31.447A.51.51,0,0,1,473.245,203.463Z" transform="translate(-396.698 -153.71)"/>
      <g id="Group_1" data-name="Group 1" transform="translate(0 16.308)">
        <g class="cls-11" transform="matrix(1, 0, 0, 1, -9, -18.81)">
          <path id="Path_2-2" data-name="Path 2" class="cls-2" d="M98.792,166.6H114.13a.224.224,0,0,1,.223.223v.4a.19.19,0,0,1-.011.078l-9.076,25.531a.218.218,0,0,1-.212.145h-7.58a.224.224,0,0,1-.223-.223h0a.19.19,0,0,1,.011-.078l7.089-19.4a.224.224,0,0,0-.212-.3H91.323a.224.224,0,0,1-.223-.223V162.423a.224.224,0,0,1,.223-.223h7.022a.224.224,0,0,1,.223.223v3.952A.224.224,0,0,0,98.792,166.6Z" transform="translate(-82.1 -143.39)"/>
        </g>
        <g class="cls-10" transform="matrix(1, 0, 0, 1, -9, -18.81)">
          <path id="Path_3-2" data-name="Path 3" class="cls-2" d="M341.568,202.368v25.6a.372.372,0,0,1-.368.368h-6.732a.372.372,0,0,1-.368-.368v-25.6a.372.372,0,0,1,.368-.368H341.2A.372.372,0,0,1,341.568,202.368Z" transform="translate(-297.97 -178.75)"/>
        </g>
        <g class="cls-9" transform="matrix(1, 0, 0, 1, -9, -18.81)">
          <path id="Path_4-2" data-name="Path 4" class="cls-1" d="M819.346,202h6.787a.348.348,0,0,1,.346.346V216.6a.357.357,0,0,1-.29.346l-6.787,1.038a.35.35,0,0,1-.4-.346V202.346A.348.348,0,0,1,819.346,202Z" transform="translate(-728.74 -178.75)"/>
        </g>
        <g class="cls-8" transform="matrix(1, 0, 0, 1, -9, -18.81)">
          <path id="Path_5-2" data-name="Path 5" class="cls-1" d="M931.324,202h24.7a.324.324,0,0,1,.324.324v14.669c0,9.366-4.823,11.688-9.958,11.688a17.4,17.4,0,0,1-5.046-.67.308.308,0,0,1-.223-.346l.759-5.526a.318.318,0,0,1,.391-.268,12.047,12.047,0,0,0,3.059.435c2.523,0,3.762-.927,3.762-6.017v-7.6a.324.324,0,0,0-.324-.324H931.324a.324.324,0,0,1-.324-.324v-5.727A.322.322,0,0,1,931.324,202Zm7.055,11.387-.011,32.5a.324.324,0,0,1-.324.324h-6.508a.329.329,0,0,1-.324-.313l-.045-31.693a.314.314,0,0,1,.279-.313l6.575-.8A.3.3,0,0,1,938.379,213.387Z" transform="translate(-828.24 -178.75)"/>
        </g>
        <g class="cls-7" transform="matrix(1, 0, 0, 1, -9, -18.81)">
          <path id="Path_6-2" data-name="Path 6" class="cls-1" d="M1216.273,202c8.708,0,13.273,4.354,13.273,12.972,0,8.752-5.012,13.932-13.273,13.932-8.35,0-13.273-5.191-13.273-13.932V202.38a.376.376,0,0,1,.38-.38Zm5.816,12.961c0-4.354-1.675-6.6-5.805-6.6h-5.425a.376.376,0,0,0-.38.38v6.218c0,4.744,1.976,7.558,5.8,7.558C1220.024,222.518,1222.089,219.705,1222.089,214.961Z" transform="translate(-1069.87 -178.75)"/>
        </g>
        <g class="cls-6" transform="matrix(1, 0, 0, 1, -9, -18.81)">
          <path id="Path_7-2" data-name="Path 7" class="cls-1" d="M1489.286,201.6h6.787a.348.348,0,0,1,.346.346v9.109c0,10.974-4.733,17.94-23.622,18.844a.337.337,0,0,1-.357-.313l-.469-5.448a.346.346,0,0,1,.3-.368c1.864-.223,3.561-.424,5.079-.647a.348.348,0,0,0,.279-.435l-5.749-20.641a.338.338,0,0,1,.335-.435h7.022a.345.345,0,0,1,.335.257l5.09,18.822a.343.343,0,0,0,.514.2c2.7-1.7,3.784-4.5,3.784-9.835v-9.109A.316.316,0,0,1,1489.286,201.6Z" transform="translate(-1308.73 -178.4)"/>
        </g>
      </g>
      <path id="Path_8" data-name="Path 8" class="cls-3" d="M490.1,35.184s6.832-18.141,13.5-19.034a3.5,3.5,0,0,1,.837-.011c5.425.536,10.482,13.519,11.889,17.46a29,29,0,0,1,0,5.478" transform="translate(-445.558 -16.119)"/>
      <circle id="Ellipse_1" data-name="Ellipse 1" class="cls-4" cx="3.427" cy="3.427" r="3.427" transform="translate(27.406 10.458)"/>
      <g id="Group_2" data-name="Group 2" transform="translate(132.242 51.104)">
        <path id="Path_9" data-name="Path 9" class="cls-2" d="M1285.725,477.539h-9.746a.276.276,0,0,1-.279-.279v-3.081a.276.276,0,0,1,.279-.279h9.746a.276.276,0,0,1,.279.279v3.081A.283.283,0,0,1,1285.725,477.539Z" transform="translate(-1275.7 -473.9)"/>
        <path id="Path_10" data-name="Path 10" class="cls-2" d="M1305.935,483.4h2.523a.336.336,0,0,1,.335.335v5.794a.336.336,0,0,1-.335.335h-2.523a.336.336,0,0,1-.335-.335v-5.794A.336.336,0,0,1,1305.935,483.4Z" transform="translate(-1302.262 -482.339)"/>
      </g>
      <path id="Path_11" data-name="Path 11" class="cls-2" d="M1518.424,477.439h-9.545a.376.376,0,0,1-.38-.38v-2.88a.376.376,0,0,1,.38-.38h9.545a.376.376,0,0,1,.38.38v2.88A.384.384,0,0,1,1518.424,477.439Z" transform="translate(-1350.27 -422.707)"/>
      <circle id="Ellipse_2" data-name="Ellipse 2" class="cls-2" cx="1.786" cy="1.786" r="1.786" transform="translate(169.45 55.357)"/>
      <circle id="Ellipse_3" data-name="Ellipse 3" class="cls-2" cx="1.786" cy="1.786" r="1.786" transform="translate(169.45 51.004)"/>
    </g>
    <g id="Group_4" data-name="Group 4" transform="translate(90.9 69.511)">
      <path id="Path_12" data-name="Path 12" d="M92.664,495.438H96.4v.156l-2.166,6.1H92.351v-.067l1.708-4.677H90.9V494.4h1.775v1.038Z" transform="translate(-90.9 -494.4)"/>
      <path id="Path_13" data-name="Path 13" d="M148.475,503.7v6.252H146.7V503.7Z" transform="translate(-140.471 -502.662)"/>
      <path id="Path_14" data-name="Path 14" d="M169.611,503.7H175.4v1.507c-.9,0-1.261.525-1.261,1.529v3.2h-1.775v-3.148a2,2,0,0,1,.614-1.6H169.6v-1.5Z" transform="translate(-160.814 -502.662)"/>
      <path id="Path_15" data-name="Path 15" d="M226.307,503.7c1.407,0,2.076.6,2.076,1.875v4.376h-1.34l-.268-1-.056-.011a1.472,1.472,0,0,1-1.451,1H224.8v-1.663h.469c.949,0,1.407-.458,1.407-1.317v-1.016c0-.525-.19-.737-.7-.737h-.558V503.7Z" transform="translate(-209.852 -502.662)"/>
      <path id="Path_16" data-name="Path 16" d="M266.9,503.7h2.545c2.333,0,3.36,1.016,3.36,3.371v2.869h-1.764v-2.869c0-1.328-.447-1.864-1.6-1.864H266.9V503.7Zm.045,3.014,1.775-.234v3.472h-1.775Z" transform="translate(-247.252 -502.662)"/>
      <path id="Path_17" data-name="Path 17" d="M359.336,503.7c2.143,0,3.092.77,3.092,2.8v3.45H356.3V503.7Zm-1.273,4.733h2.59v-1.786c0-1.061-.435-1.44-1.34-1.44h-1.25Z" transform="translate(-326.672 -502.662)"/>
      <path id="Path_18" data-name="Path 18" d="M420.9,503.7h1.775v3.528l-1.775.268Z" transform="translate(-384.061 -502.662)"/>
      <path id="Path_19" data-name="Path 19" d="M445.5,503.7h6.017v3.55c0,2.222-1.139,2.769-2.344,2.769a4.079,4.079,0,0,1-1.25-.179l.2-1.462a2.749,2.749,0,0,0,.8.123c.592,0,.882-.223.882-1.429V505.2H445.5v-1.5Zm1.764,2.623-.034,7.9h-1.674v-7.692Z" transform="translate(-405.914 -502.662)"/>
      <path id="Path_20" data-name="Path 20" d="M511.448,503.7c2.065,0,3.148,1.027,3.148,3.07a3.152,3.152,0,1,1-6.3,0V503.7Zm1.373,3.07c0-1.027-.391-1.563-1.373-1.563h-1.373v1.563c0,1.128.469,1.786,1.373,1.786C512.33,508.567,512.821,507.9,512.821,506.77Z" transform="translate(-461.704 -502.662)"/>
      <path id="Path_21" data-name="Path 21" d="M572.464,503.7h1.775v2.244c0,2.612-1.139,4.264-5.671,4.465l-.123-1.451c.513-.067.971-.112,1.373-.179L568.4,503.7h1.831l1.25,4.622c.7-.391.994-1.061.994-2.389V503.7Z" transform="translate(-515.095 -502.662)"/>
      <path id="Path_22" data-name="Path 22" d="M630.111,503.7h2.545c2.333,0,3.36,1.016,3.36,3.371v2.869h-1.775v-2.869c0-1.328-.447-1.864-1.6-1.864H630.1V503.7Zm.056,3.014,1.775-.234v3.472h-1.775Z" transform="translate(-569.907 -502.662)"/>
      <path id="Path_23" data-name="Path 23" d="M721.464,503.7l.056,10.527h-1.786L719.7,503.7Z" transform="translate(-649.504 -502.662)"/>
      <path id="Path_24" data-name="Path 24" d="M748.075,503.7v6.252H746.3V503.7Z" transform="translate(-673.135 -502.662)"/>
      <path id="Path_25" data-name="Path 25" d="M772.4,503.7h1.775v3.528l-1.775.268Z" transform="translate(-696.321 -502.662)"/>
      <path id="Path_26" data-name="Path 26" d="M795.9,510.04v-1.507h1.217V506.1c0-.592-.112-.793-.592-.793h-.458V503.8h1c1.317,0,1.808.569,1.808,1.808v4.432Z" transform="translate(-717.198 -502.751)"/>
      <path id="Path_27" data-name="Path 27" d="M832.7,503.7h6.017v3.55c0,2.222-1.139,2.769-2.344,2.769a4.078,4.078,0,0,1-1.25-.179l.2-1.462a2.749,2.749,0,0,0,.8.123c.592,0,.882-.223.882-1.429V505.2H832.7Zm1.764,2.623-.056,7.9h-1.675l.022-7.692Z" transform="translate(-749.89 -502.662)"/>
    </g>
    <g id="Group_5" data-name="Group 5" transform="translate(132.385 36.858)">
      <g class="cls-5" transform="matrix(1, 0, 0, 1, -50.46, -23.24)">
        <path id="Path_28-2" data-name="Path 28" class="cls-2" d="M494.6,215.017c0,10.728-7.078,15.662-17.348,12.1a.342.342,0,0,1-.212-.424l1.507-5.236a.345.345,0,0,1,.458-.223c5.6,2.166,8.25-.179,8.25-6.218,0-4.365-2.344-6.676-5.336-6.676-2.8,0-5.057,1.842-6.9,8.216l-3.237,11.186a.348.348,0,0,1-.335.246h-7a.341.341,0,0,1-.324-.447L467.5,216.4a.311.311,0,0,0-.011-.223l-4.945-13.43a.34.34,0,0,1,.324-.458h6.932a.349.349,0,0,1,.324.234l1.44,4.465a.341.341,0,0,0,.614.078,10.743,10.743,0,0,1,9.366-5.169C489.4,201.911,494.6,207.3,494.6,215.017Z" transform="translate(-412.06 -178.66)"/>
      </g>
    </g>
  </g>
</svg>
